<mxfile host="65bd71144e">
    <diagram id="nXNv6R9ZOGS5gi4z82Ms" name="Page-1">
        <mxGraphModel dx="1538" dy="309" grid="1" gridSize="10" guides="1" tooltips="1" connect="1" arrows="1" fold="1" page="1" pageScale="1" pageWidth="850" pageHeight="1100" math="0" shadow="0">
            <root>
                <mxCell id="0"/>
                <mxCell id="1" parent="0"/>
                <mxCell id="17" style="edgeStyle=none;html=1;" parent="1" source="14" target="16" edge="1">
                    <mxGeometry relative="1" as="geometry"/>
                </mxCell>
                <mxCell id="14" value="Canidate profile" style="whiteSpace=wrap;html=1;" parent="1" vertex="1">
                    <mxGeometry x="70" y="340" width="110" height="50" as="geometry"/>
                </mxCell>
                <mxCell id="15" value="Recruiter Agent&lt;div&gt;- Basic search of canidate database&lt;/div&gt;&lt;div&gt;- Conversation with canidate agent to negotiate initial offer&lt;/div&gt;&lt;div&gt;- Maintain a list of initial offers&lt;/div&gt;" style="whiteSpace=wrap;html=1;" parent="1" vertex="1">
                    <mxGeometry x="810" y="400" width="270" height="110" as="geometry"/>
                </mxCell>
                <mxCell id="23" value="" style="edgeStyle=none;html=1;" parent="1" source="16" target="22" edge="1">
                    <mxGeometry relative="1" as="geometry"/>
                </mxCell>
                <mxCell id="16" value="Canidate Agent&lt;div&gt;- Basic search of job database to narrow down possible roles&lt;/div&gt;&lt;div&gt;- Conversation with recruiting agent for all roles&lt;/div&gt;&lt;div&gt;- Maintain a list of offers and present informaiton canidate client&lt;/div&gt;" style="whiteSpace=wrap;html=1;" parent="1" vertex="1">
                    <mxGeometry x="-10" y="420" width="270" height="110" as="geometry"/>
                </mxCell>
                <mxCell id="18" style="edgeStyle=none;html=1;entryX=0.25;entryY=0;entryDx=0;entryDy=0;exitX=0.5;exitY=1;exitDx=0;exitDy=0;" parent="1" source="20" target="15" edge="1">
                    <mxGeometry relative="1" as="geometry">
                        <mxPoint x="990" y="390" as="targetPoint"/>
                    </mxGeometry>
                </mxCell>
                <mxCell id="21" style="edgeStyle=none;html=1;exitX=0.5;exitY=1;exitDx=0;exitDy=0;entryX=0.75;entryY=0;entryDx=0;entryDy=0;" parent="1" source="19" target="15" edge="1">
                    <mxGeometry relative="1" as="geometry"/>
                </mxCell>
                <mxCell id="19" value="Position Description" style="whiteSpace=wrap;html=1;" parent="1" vertex="1">
                    <mxGeometry x="970" y="330" width="110" height="50" as="geometry"/>
                </mxCell>
                <mxCell id="20" value="Position Description" style="whiteSpace=wrap;html=1;" parent="1" vertex="1">
                    <mxGeometry x="820" y="330" width="110" height="50" as="geometry"/>
                </mxCell>
                <mxCell id="22" value="" style="whiteSpace=wrap;html=1;" parent="1" vertex="1">
                    <mxGeometry x="50" y="560" width="120" height="60" as="geometry"/>
                </mxCell>
                <mxCell id="28" value="" style="edgeStyle=none;html=1;entryX=0;entryY=0.5;entryDx=0;entryDy=0;" parent="1" source="25" target="66" edge="1">
                    <mxGeometry relative="1" as="geometry">
                        <mxPoint x="260" y="870" as="targetPoint"/>
                    </mxGeometry>
                </mxCell>
                <mxCell id="49" value="Attributes" style="edgeLabel;html=1;align=center;verticalAlign=middle;resizable=0;points=[];" parent="28" vertex="1" connectable="0">
                    <mxGeometry x="0.0526" y="1" relative="1" as="geometry">
                        <mxPoint as="offset"/>
                    </mxGeometry>
                </mxCell>
                <mxCell id="46" value="" style="edgeStyle=none;html=1;" parent="1" source="25" target="45" edge="1">
                    <mxGeometry relative="1" as="geometry"/>
                </mxCell>
                <mxCell id="25" value="Standard Query Job Desires&lt;br&gt;&lt;div&gt;- Salary&lt;/div&gt;&lt;div&gt;- Location&lt;/div&gt;&lt;div&gt;-&amp;nbsp; Position&lt;/div&gt;&lt;div&gt;- Description&lt;/div&gt;" style="whiteSpace=wrap;html=1;" parent="1" vertex="1">
                    <mxGeometry x="30" y="770" width="120" height="100" as="geometry"/>
                </mxCell>
                <mxCell id="60" style="edgeStyle=none;html=1;exitX=1;exitY=0.5;exitDx=0;exitDy=0;entryX=0;entryY=0.5;entryDx=0;entryDy=0;" parent="1" source="66" target="67" edge="1">
                    <mxGeometry relative="1" as="geometry">
                        <mxPoint x="380" y="870" as="sourcePoint"/>
                        <mxPoint x="485.3199999999997" y="1036.19" as="targetPoint"/>
                    </mxGeometry>
                </mxCell>
                <mxCell id="62" value="Desired Job" style="edgeLabel;html=1;align=center;verticalAlign=middle;resizable=0;points=[];" parent="60" vertex="1" connectable="0">
                    <mxGeometry x="-0.0739" y="-1" relative="1" as="geometry">
                        <mxPoint as="offset"/>
                    </mxGeometry>
                </mxCell>
                <mxCell id="59" value="" style="edgeStyle=none;html=1;entryX=0;entryY=0.5;entryDx=0;entryDy=0;" parent="1" source="29" target="67" edge="1">
                    <mxGeometry relative="1" as="geometry">
                        <mxPoint x="490" y="1034.3478260869567" as="targetPoint"/>
                    </mxGeometry>
                </mxCell>
                <mxCell id="29" value="Canidate Qualifications&lt;div&gt;Work experience&lt;/div&gt;" style="whiteSpace=wrap;html=1;" parent="1" vertex="1">
                    <mxGeometry x="30" y="1000" width="120" height="60" as="geometry"/>
                </mxCell>
                <mxCell id="68" style="edgeStyle=none;html=1;entryX=0;entryY=0.5;entryDx=0;entryDy=0;" parent="1" source="33" target="67" edge="1">
                    <mxGeometry relative="1" as="geometry"/>
                </mxCell>
                <mxCell id="33" value="Canidate soft info&lt;div&gt;stored as text embedding&lt;/div&gt;" style="whiteSpace=wrap;html=1;" parent="1" vertex="1">
                    <mxGeometry x="30" y="1090" width="120" height="60" as="geometry"/>
                </mxCell>
                <mxCell id="34" style="edgeStyle=none;html=1;entryX=0.487;entryY=0.084;entryDx=0;entryDy=0;entryPerimeter=0;" parent="1" source="29" target="33" edge="1">
                    <mxGeometry relative="1" as="geometry"/>
                </mxCell>
                <mxCell id="38" value="Presenting user offers" style="whiteSpace=wrap;html=1;" parent="1" vertex="1">
                    <mxGeometry x="900" y="880" width="120" height="60" as="geometry"/>
                </mxCell>
                <mxCell id="40" value="Recruiter Negotiations&lt;div&gt;feature creep&lt;/div&gt;" style="whiteSpace=wrap;html=1;" parent="1" vertex="1">
                    <mxGeometry x="900" y="810" width="120" height="60" as="geometry"/>
                </mxCell>
                <mxCell id="41" value="Recruiter Interview" style="whiteSpace=wrap;html=1;" parent="1" vertex="1">
                    <mxGeometry x="900" y="740" width="120" height="60" as="geometry"/>
                </mxCell>
                <mxCell id="44" value="&lt;h1 style=&quot;margin-top: 0px;&quot;&gt;Canidate Agent Initialization&lt;/h1&gt;" style="text;html=1;whiteSpace=wrap;overflow=hidden;rounded=0;" parent="1" vertex="1">
                    <mxGeometry x="180" y="710" width="350" height="40" as="geometry"/>
                </mxCell>
                <mxCell id="47" style="edgeStyle=none;html=1;exitX=1;exitY=0.5;exitDx=0;exitDy=0;entryX=0;entryY=0.5;entryDx=0;entryDy=0;" parent="1" source="45" target="66" edge="1">
                    <mxGeometry relative="1" as="geometry">
                        <mxPoint x="260" y="870" as="targetPoint"/>
                    </mxGeometry>
                </mxCell>
                <mxCell id="48" value="Giant Text Attribute" style="edgeLabel;html=1;align=center;verticalAlign=middle;resizable=0;points=[];" parent="47" vertex="1" connectable="0">
                    <mxGeometry x="-0.1166" y="-5" relative="1" as="geometry">
                        <mxPoint x="5" y="2" as="offset"/>
                    </mxGeometry>
                </mxCell>
                <mxCell id="51" style="edgeStyle=none;html=1;exitX=0.5;exitY=1;exitDx=0;exitDy=0;entryX=0.5;entryY=0;entryDx=0;entryDy=0;" parent="1" source="45" target="29" edge="1">
                    <mxGeometry relative="1" as="geometry"/>
                </mxCell>
                <mxCell id="45" value="Semantic Job Desires&lt;div&gt;- Company Culture&lt;/div&gt;&lt;div&gt;- Responsibilities&amp;nbsp;&lt;/div&gt;" style="whiteSpace=wrap;html=1;" parent="1" vertex="1">
                    <mxGeometry x="30" y="890" width="120" height="80" as="geometry"/>
                </mxCell>
                <mxCell id="50" value="Canidate Database" style="shape=cylinder3;whiteSpace=wrap;html=1;boundedLbl=1;backgroundOutline=1;size=15;" parent="1" vertex="1">
                    <mxGeometry x="520" y="870" width="60" height="80" as="geometry"/>
                </mxCell>
                <mxCell id="65" style="edgeStyle=none;html=1;exitX=0.5;exitY=0;exitDx=0;exitDy=0;entryX=0.5;entryY=1;entryDx=0;entryDy=0;entryPerimeter=0;" parent="1" source="67" target="50" edge="1">
                    <mxGeometry relative="1" as="geometry">
                        <mxPoint x="550" y="1000" as="sourcePoint"/>
                    </mxGeometry>
                </mxCell>
                <mxCell id="66" value="&lt;div&gt;&lt;br&gt;&lt;/div&gt;Job Instance&lt;div&gt;(Dream Job&lt;span style=&quot;background-color: transparent;&quot;&gt;)&lt;/span&gt;&lt;/div&gt;" style="rounded=1;whiteSpace=wrap;html=1;" parent="1" vertex="1">
                    <mxGeometry x="270" y="870" width="120" height="60" as="geometry"/>
                </mxCell>
                <mxCell id="79" style="edgeStyle=none;html=1;entryX=0.5;entryY=0;entryDx=0;entryDy=0;" parent="1" source="67" target="69" edge="1">
                    <mxGeometry relative="1" as="geometry"/>
                </mxCell>
                <mxCell id="67" value="Canidate Instance&lt;div&gt;&lt;div&gt;- Canidate info&lt;/div&gt;&lt;div&gt;- Desired job info&lt;/div&gt;&lt;div&gt;- Agentic context&lt;/div&gt;&lt;/div&gt;" style="rounded=1;whiteSpace=wrap;html=1;" parent="1" vertex="1">
                    <mxGeometry x="490" y="1000" width="120" height="70" as="geometry"/>
                </mxCell>
                <mxCell id="81" value="" style="edgeStyle=none;html=1;" parent="1" source="69" target="80" edge="1">
                    <mxGeometry relative="1" as="geometry"/>
                </mxCell>
                <mxCell id="69" value="Canidate Agent&lt;div&gt;&lt;span style=&quot;background-color: transparent;&quot;&gt;Behavioral Instructions&lt;/span&gt;&lt;div&gt;&lt;div&gt;Conversation History&lt;/div&gt;&lt;div&gt;&lt;br&gt;&lt;/div&gt;&lt;div&gt;&lt;br&gt;&lt;/div&gt;&lt;/div&gt;&lt;/div&gt;" style="rounded=1;whiteSpace=wrap;html=1;" parent="1" vertex="1">
                    <mxGeometry x="450" y="1110" width="200" height="170" as="geometry"/>
                </mxCell>
                <mxCell id="80" value="Conversation" style="whiteSpace=wrap;html=1;rounded=1;" parent="1" vertex="1">
                    <mxGeometry x="425" y="1330" width="120" height="60" as="geometry"/>
                </mxCell>
                <mxCell id="84" value="" style="edgeStyle=none;html=1;exitX=0.5;exitY=1;exitDx=0;exitDy=0;" edge="1" parent="1" source="82" target="83">
                    <mxGeometry relative="1" as="geometry"/>
                </mxCell>
                <mxCell id="86" style="edgeStyle=none;html=1;exitX=0.5;exitY=1;exitDx=0;exitDy=0;" edge="1" parent="1" source="82">
                    <mxGeometry relative="1" as="geometry">
                        <mxPoint x="-260" y="1050" as="targetPoint"/>
                    </mxGeometry>
                </mxCell>
                <mxCell id="82" value="Agent&amp;nbsp;&lt;div&gt;&lt;span style=&quot;background-color: transparent;&quot;&gt;- API connection&lt;/span&gt;&lt;div&gt;&lt;div&gt;- Conversation History&lt;/div&gt;&lt;/div&gt;&lt;/div&gt;" style="whiteSpace=wrap;html=1;" vertex="1" parent="1">
                    <mxGeometry x="-400" y="930" width="120" height="70" as="geometry"/>
                </mxCell>
                <mxCell id="83" value="Canidate Agent&lt;div&gt;- Canidate specifications&lt;/div&gt;" style="whiteSpace=wrap;html=1;" vertex="1" parent="1">
                    <mxGeometry x="-485" y="1040" width="120" height="60" as="geometry"/>
                </mxCell>
            </root>
        </mxGraphModel>
    </diagram>
</mxfile>